
      <svg data-logo="logo" xmlns="http://www.w3.org/2000/svg" viewBox="0 0 41 41">
        <g id="logogram" transform="translate(0, 0) rotate(0) "><path fill-rule="evenodd" clip-rule="evenodd" d="M10.8181 0.799957C16.3409 0.799957 20.8181 5.27711 20.8181 10.8V0.799957H30.8181C36.3409 0.799957 40.8181 5.27711 40.8181 10.8C40.8181 16.3228 36.3409 20.8 30.8181 20.8C36.3409 20.8 40.8181 25.2772 40.8181 30.8C40.8181 33.5423 39.7142 36.0268 37.9266 37.8334L37.8892 37.8711L37.856 37.9041C36.049 39.6943 33.5627 40.8 30.8181 40.8C28.0922 40.8 25.621 39.7093 23.8171 37.9405C23.7937 37.9175 23.7703 37.8943 23.747 37.8711C23.7251 37.8492 23.7033 37.8272 23.6816 37.8051C21.9105 36.0009 20.8181 33.528 20.8181 30.8C20.8181 36.3228 16.3409 40.8 10.8181 40.8C5.29527 40.8 0.818115 36.3228 0.818115 30.8V20.8H10.8181C5.29527 20.8 0.818115 16.3228 0.818115 10.8C0.818115 5.27711 5.29527 0.799957 10.8181 0.799957ZM18.8181 10.8C18.8181 15.2183 15.2364 18.8 10.8181 18.8V2.79996C15.2364 2.79996 18.8181 6.38168 18.8181 10.8ZM38.8181 30.8C38.8181 26.3817 35.2364 22.8 30.8181 22.8C26.3998 22.8 22.8181 26.3817 22.8181 30.8H38.8181ZM2.81812 22.8V30.8C2.81812 35.2183 6.39984 38.8 10.8181 38.8C15.2364 38.8 18.8181 35.2183 18.8181 30.8V22.8H2.81812ZM22.8181 18.8V2.79996H30.8181C35.2364 2.79996 38.8181 6.38168 38.8181 10.8C38.8181 15.2183 35.2364 18.8 30.8181 18.8H22.8181Z" fill="#5417D7"/></g>
        <g id="logotype" transform="translate(41, 20.5)"></g>
        
      </svg>
    